# xmcd
#
# Track frame offsets:
#	150
#	20338
#	37827
#	66330
#	90557
#	109311
#	131344
#	147698
#	164582
#	187621
#	205117
#	225376
#	241875
#	257092
#	274211
#	289123
#	312222
#	333643
#
# Disc length: 4635 seconds
#
# Revision: 1
# Processed by: cddbd v1.5.1PL0 Copyright (c) Steve Scherf et al.
# Submitted via: audiograbber 1.83.01
#
DISCID=01121912
DTITLE=Olga Manzano and Manuel Picón - Grandes éxitos
DYEAR=1900
DGENRE=
TTITLE0=Tu risa
TTITLE1=Carta de soldado
TTITLE2=Caraballo mató un gallo
TTITLE3=Diálogo con Teresa
TTITLE4=Venganza
TTITLE5=La noche en la isla
TTITLE6=Como un puñado de tierra
TTITLE7=El hijo
TTITLE8=Garrincha
TTITLE9=Duerme negrito
TTITLE10=Te quiero al alba
TTITLE11=Tus manos
TTITLE12=Canción de esquina
TTITLE13=Por los medanos blancos
TTITLE14=El sonido de la oscuridad
TTITLE15=Raigones
TTITLE16=Construcción
TTITLE17=Sobre el tiempo y el mar
EXTD=
EXTT0=
EXTT1=
EXTT2=
EXTT3=
EXTT4=
EXTT5=
EXTT6=
EXTT7=
EXTT8=
EXTT9=
EXTT10=
EXTT11=
EXTT12=
EXTT13=
EXTT14=
EXTT15=
EXTT16=
EXTT17=
PLAYORDER=
